<!-- Generated by IcoMoon.io -->
<svg version="1.1" xmlns="http://www.w3.org/2000/svg" width="32" height="32" viewBox="0 0 32 32">
<title>instagram</title>
<path d="M31.913 9.408c-0.027-1.403-0.297-2.734-0.77-3.966l0.027 0.080c-0.852-2.155-2.527-3.829-4.628-4.66l-0.055-0.019c-1.151-0.445-2.483-0.715-3.874-0.743l-0.012-0c-1.71-0.082-2.254-0.101-6.597-0.101s-4.889 0.018-6.597 0.094c-1.403 0.027-2.734 0.298-3.966 0.77l0.080-0.027c-1.112 0.424-2.059 1.054-2.837 1.85l-0.001 0.001c-0.79 0.78-1.416 1.724-1.822 2.778l-0.018 0.054c-0.445 1.151-0.715 2.483-0.743 3.874l-0 0.012c-0.082 1.71-0.101 2.251-0.101 6.594s0.018 4.891 0.094 6.599c0.028 1.403 0.299 2.735 0.772 3.966l-0.027-0.080c0.851 2.155 2.526 3.83 4.626 4.662l0.055 0.019c1.151 0.445 2.483 0.715 3.874 0.743l0.012 0c1.707 0.075 2.251 0.094 6.594 0.094s4.889-0.018 6.594-0.094c1.403-0.027 2.734-0.297 3.966-0.77l-0.080 0.027c2.157-0.849 3.833-2.524 4.664-4.626l0.019-0.055c0.445-1.151 0.715-2.483 0.743-3.874l0-0.012c0.075-1.707 0.094-2.251 0.094-6.594s-0.011-4.889-0.087-6.597zM29.031 22.473c-0.011 1.070-0.212 2.090-0.571 3.032l0.020-0.060c-0.552 1.399-1.639 2.485-3.002 3.023l-0.036 0.012c-0.882 0.338-1.901 0.539-2.966 0.551l-0.005 0c-1.687 0.075-2.194 0.094-6.464 0.094s-4.782-0.018-6.464-0.094c-1.070-0.011-2.090-0.212-3.032-0.571l0.060 0.020c-0.717-0.27-1.328-0.677-1.827-1.192l-0.001-0.001c-0.515-0.501-0.921-1.112-1.182-1.794l-0.011-0.034c-0.338-0.882-0.539-1.901-0.551-2.966l-0-0.005c-0.075-1.687-0.094-2.194-0.094-6.464s0.018-4.782 0.094-6.464c0.009-1.071 0.208-2.092 0.566-3.036l-0.020 0.060c0.27-0.718 0.679-1.33 1.198-1.827l0.002-0.002c0.501-0.515 1.112-0.922 1.794-1.182l0.034-0.011c0.882-0.338 1.901-0.539 2.966-0.551l0.005-0c1.687-0.075 2.194-0.094 6.464-0.094s4.782 0.018 6.464 0.094c1.070 0.011 2.090 0.212 3.032 0.571l-0.060-0.020c0.717 0.27 1.328 0.676 1.827 1.192l0.001 0.001c0.515 0.501 0.921 1.112 1.182 1.794l0.011 0.034c0.338 0.882 0.539 1.901 0.551 2.966l0 0.005c0.075 1.687 0.094 2.194 0.094 6.464s-0.005 4.768-0.080 6.455z" fill="#555"></path>
<path d="M16.005 7.783c-4.544 0-8.229 3.684-8.229 8.229s3.684 8.229 8.229 8.229c4.544 0 8.229-3.684 8.229-8.229v0c0-4.544-3.684-8.229-8.229-8.229v0zM16.005 21.335c-2.945 0-5.333-2.387-5.333-5.333s2.387-5.333 5.333-5.333c2.945 0 5.333 2.387 5.333 5.333v0c0 2.945-2.387 5.333-5.333 5.333v0z" fill="#555"></path>
<path d="M26.469 7.458c0 1.060-0.86 1.92-1.92 1.92s-1.92-0.86-1.92-1.92c0-1.060 0.86-1.92 1.92-1.92v0c1.060 0 1.92 0.86 1.92 1.92v0z" fill="#555"></path>
</svg>
